<svg width="2404.001" height="340" viewBox="0 0 1802.999 255" xmlns="http://www.w3.org/2000/svg"><path fill="none" stroke="#000" d="M164.5.5H.5v227h9v27h173v-45h27v-146h-18v-18h-9v-27h-18zm243 0h-191v227h9v27h200v-56h-18v-18h-117v-16h81v-56h-18v-18h-63v-16h135v-56h-18zm81 0h-56v137h9v27h18v18h9v27h18v18h9v27h119v-45h27v-45h27v-146h-18V.5h-56v135h-27v45h-34v-27h-18v-18h-9v-117h-18zm540 0h-191v137h9v27h126v16h-135v47h9v27h200v-146h-18v-18h-117v-16h135v-56h-18zm81 0h-56v182h9v27h18v18h9v27h173v-45h27v-191h-18V.5h-56v180h-88v-162h-18zm378 0h-191v137h9v27h126v16h-135v47h9v27h200v-146h-18v-18h-117v-16h135v-56h-18zm81 0h-56v227h9v27h65v-90h61v63h9v27h65v-236h-18V.5h-56v90h-61v-72h-18zm216 0h-56v227h9v27h65v-236h-18zm-1620 22h14v23h-3v-20h-11zm243 0h14v48h-135v20h-3v-23h135v-42h-11zm81 0h14v113h-3v-110h-11zm162 0h14v138h-27v45h-27v45h-111v-23h3v20h105v-45h27v-45h27v-132h-11zm378 0h14v48h-135v20h-3v-23h135v-42h-11zm81 0h14v158h-3v-155h-11zm162 0h14v183h-27v45h-165v-23h3v20h159v-45h27v-177h-11zm216 0h14v48h-135v20h-3v-23h135v-42h-11zm81 0h14v68h-3v-65h-11zm135 0h14v228h-57v-23h3v20h51v-222h-11zm81 0h14v228h-57v-23h3v20h51v-222h-11zm-1620 7h7v16h-7zm243 0h7v34h-135v27h-7v-43h135zm81 0h7v106h-7zm162 0h7v124h-27v45h-27v45h-97v-16h90v-45h27v-45h27zm378 0h7v34h-135v27h-7v-43h135zm81 0h7v151h-7zm162 0h7v169h-27v45h-151v-16h144v-45h27zm216 0h7v34h-135v27h-7v-43h135zm81 0h7v61h-7zm135 0h7v214h-43v-16h36zm81 0h7v214h-43v-16h36zm-1728 18h79v16h-72v117h-7zm11 20h68v3h-65v110h-3zm124 0h14v138h-27v45h-165v-23h3v20h159v-45h27v-132h-11zm-117 7h61v106h-61zm117 0h7v124h-27v45h-151v-16h144v-45h27zm621 16h-137v47h9v27h146v-56h-18zm-459 22h14v48h-81v20h-3v-23h81v-42h-11zm459 0h14v48h-138v-23h3v20h132v-42h-11zm216 0h14v138h-192v-23h3v20h186v-132h-11zm459 0h14v138h-192v-23h3v20h186v-132h-11zm-1134 7h7v34h-81v27h-7v-43h81zm459 0h7v34h-124v-16h117zm216 0h7v124h-178v-16h171zm459 0h7v124h-178v-16h171zm-1042 18h3v20h11v3h-14zm7 0h7v16h-7zm398 0h3v20h119v3h-122zm7 0h115v16h-115zm452 0h3v20h119v3h-122zm7 0h115v16h-115zm252 0h79v16h-72v90h-43v-16h36zm-1053 20h14v23h-3v-20h-11zm1064 0h68v3h-65v90h-57v-23h3v20h51zm-1064 7h7v16h-7zm-43 18h3v20h11v3h-14zm7 0h7v16h-7zm587 0h3v20h11v3h-14zm7 0h7v16h-7zm-666 20h14v48h-192v-23h3v20h186v-42h-11zm0 7h7v34h-178v-16h171z" style="fill:#fff"/></svg>